<?xml version="1.0" encoding="utf-8"?>
<!-- Generator: Adobe Illustrator 25.2.0, SVG Export Plug-In . SVG Version: 6.00 Build 0)  -->
<svg version="1.1" id="Layer_1" xmlns="http://www.w3.org/2000/svg" xmlns:xlink="http://www.w3.org/1999/xlink" x="0px" y="0px"
	 viewBox="0 0 96 96" style="enable-background:new 0 0 96 96;" xml:space="preserve">
<style type="text/css">
	.st0{fill:#BAF9F5;}
	.st1{fill:#C8B0F7;}
</style>
<polygon class="st0" points="48.005,4.6 23.012,47.908 48.034,35.899 72.728,47.908 "/>
<polygon class="st1" points="47.961,36.142 23.012,47.908 48.108,61.918 72.093,48.463 "/>
<path d="M48.001,0.188L18.458,48.704l29.545,17.389l29.667-17.387L48.001,0.188z M48.009,9.012l21.752,35.571L48.017,32.785
	l-21.4,11.356L48.009,9.012z M48.007,60.763L27.663,48.79L47.993,38l20.182,10.941L48.007,60.763z"/>
<polygon class="st0" points="26.575,62.042 48.005,91.854 69.459,62.042 48.005,74.404 "/>
<path d="M48,95.952L18.157,53.946l29.851,17.496l29.976-17.48L48,95.952z M34.302,68.737L48.01,88.03l13.788-19.309l-13.795,8.045
	L34.302,68.737z"/>
</svg>
