<?xml version="1.0" encoding="utf-8"?>
<!-- Generator: Adobe Illustrator 25.2.0, SVG Export Plug-In . SVG Version: 6.00 Build 0)  -->
<svg version="1.1" id="Layer_1" xmlns="http://www.w3.org/2000/svg" xmlns:xlink="http://www.w3.org/1999/xlink" x="0px" y="0px"
	 viewBox="0 0 24 24" style="enable-background:new 0 0 24 24;" xml:space="preserve">
<style type="text/css">
	.st0{fill:#ADB5BD;}
</style>
<g>
	<polygon class="st0" points="7,6.3 7,7.6 9.7,7.6 10,7.3 10,6.6 9.7,6.3 	"/>
	<path class="st0" d="M7,8.9v1.3h2.7L10,9.9c0-0.1,0-0.7,0-0.7L9.7,8.9H7z"/>
	<polygon class="st0" points="14,13.8 14,15.1 16.7,15.1 17,14.8 17,14.1 16.7,13.8 	"/>
	<path class="st0" d="M12,0C5.373,0,0,5.373,0,12s5.373,12,12,12s12-5.373,12-12S18.627,0,12,0z M11.5,17.8l-1,1.2H6.6l-1.1-1.2
		v-5.3H7v4.6l0.6,0.7h1.8l0.6-0.7v-4.6h1.5V17.8z M11.5,7.6l-0.6,0.6l0.6,0.7v1.3l-1.2,1.3H5.5V5h4.9l1.1,1.3V7.6z M18.5,15.1
		l-0.7,0.7l0.7,0.6V19H17v-2.3l-0.3-0.3H14V19h-1.5v-6.5h4.8l1.2,1.3V15.1z M18.5,11.5h-4.8l-1.2-1.3V5H14v4.6l0.6,0.6h3.9V11.5z"/>
</g>
</svg>
