<?xml version="1.0" encoding="utf-8"?>
<!-- Generator: Adobe Illustrator 25.2.0, SVG Export Plug-In . SVG Version: 6.00 Build 0)  -->
<svg version="1.1" id="Layer_1" xmlns="http://www.w3.org/2000/svg" xmlns:xlink="http://www.w3.org/1999/xlink" x="0px" y="0px"
	 viewBox="0 0 24 24" style="enable-background:new 0 0 24 24;" xml:space="preserve">
<style type="text/css">
	.st0{fill:#080404;}
	.st1{fill:#FF8700;}
</style>
<circle class="st0" cx="12" cy="12" r="12"/>
<path class="st1" d="M11.5,7.6c0,0,0-1.3,0-1.3L10.4,5H5.5v6.5h4.8l1.2-1.3l0-1.3l-0.6-0.7L11.5,7.6z M10,9.9l-0.3,0.3H7V8.9h2.7
	L10,9.2C10,9.2,10,9.8,10,9.9z M10,7.3L9.7,7.6H7V6.3h2.7L10,6.6V7.3z"/>
<polygon class="st1" points="18.5,11.5 13.7,11.5 12.5,10.2 12.5,5 14,5 14,9.6 14.6,10.2 18.5,10.2 "/>
<polygon class="st1" points="11.5,17.8 10.5,19 6.6,19 5.5,17.8 5.5,12.5 7,12.5 7,17.1 7.6,17.8 9.4,17.8 10,17.1 10,12.5 
	11.5,12.5 "/>
<path class="st1" d="M17.3,12.5h-4.8V19H14v-2.6h2.7l0.3,0.3V19h1.5v-2.6l-0.7-0.6l0.7-0.7v-1.3L17.3,12.5z M17,14.8l-0.3,0.3H14
	v-1.3h2.7l0.3,0.3L17,14.8z"/>
</svg>
