<?xml version="1.0" encoding="utf-8"?>
<!-- Generator: Adobe Illustrator 25.2.0, SVG Export Plug-In . SVG Version: 6.00 Build 0)  -->
<svg version="1.1" id="Layer_1" xmlns="http://www.w3.org/2000/svg" xmlns:xlink="http://www.w3.org/1999/xlink" x="0px" y="0px"
	 viewBox="0 0 24 24" style="enable-background:new 0 0 24 24;" xml:space="preserve">
<style type="text/css">
	.st0{fill:#ADB5BD;}
</style>
<path class="st0" d="M12,0C5.4,0,0,5.4,0,12s5.4,12,12,12s12-5.4,12-12S18.6,0,12,0z M19.605,11.454l-6.558,6.527
	c-0.582,0.58-1.522,0.578-2.102-0.002l-0.668-0.668l0,0l-1.719-1.719l-1.717-1.717L5.125,12.16l-0.706-0.706
	c-0.559-0.559-0.559-1.467,0-2.026l2.535-2.506c0.269-0.267,0.633-0.418,1.013-0.418h2.802h0.833h2.613V6.5h1.698
	c0.433,0,0.849,0.177,1.148,0.49l0.051,0.05l0.001-0.001l0.506,0.507l0.19,0.189l0,0l1.4,1.401l0.345,0.346
	C20.114,10.042,20.164,10.895,19.605,11.454z"/>
</svg>
