<?xml version="1.0" encoding="utf-8"?>
<!-- Generator: Adobe Illustrator 25.2.0, SVG Export Plug-In . SVG Version: 6.00 Build 0)  -->
<svg version="1.1" id="Layer_1" xmlns="http://www.w3.org/2000/svg" xmlns:xlink="http://www.w3.org/1999/xlink" x="0px" y="0px"
	 viewBox="0 0 24 24" style="enable-background:new 0 0 24 24;" xml:space="preserve">
<style type="text/css">
	.st0{fill:url(#SVGID_1_);}
	.st1{fill:url(#SVGID_2_);}
	.st2{fill:url(#SVGID_3_);}
	.st3{fill:url(#SVGID_4_);}
	.st4{fill:url(#SVGID_5_);}
</style>
<path d="M12,24c6.6,0,12-5.4,12-12S18.6,0,12,0S0,5.4,0,12S5.4,24,12,24z"/>
<linearGradient id="SVGID_1_" gradientUnits="userSpaceOnUse" x1="3.9482" y1="778.0267" x2="7.8369" y2="774.1381" gradientTransform="matrix(1 0 0 1 0 -766)">
	<stop  offset="0" style="stop-color:#C774FF"/>
	<stop  offset="1" style="stop-color:#D677DB"/>
</linearGradient>
<path class="st0" d="M6.954,6.922L4.419,9.428c-0.559,0.559-0.559,1.467,0,2.026l0.798,0.798L11.603,6.5H7.967
	C7.588,6.5,7.223,6.655,6.954,6.922z"/>
<linearGradient id="SVGID_2_" gradientUnits="userSpaceOnUse" x1="7.5885" y1="778.006" x2="10.5985" y2="774.9756" gradientTransform="matrix(1 0 0 1 0 -766)">
	<stop  offset="0" style="stop-color:#EF7A9D"/>
	<stop  offset="1" style="stop-color:#D677DB"/>
</linearGradient>
<path class="st1" d="M10.769,6.5l-5.644,5.66l1.8,1.8l8.443-7.46C15.368,6.5,10.769,6.5,10.769,6.5z"/>
<linearGradient id="SVGID_3_" gradientUnits="userSpaceOnUse" x1="11.0048" y1="777.8777" x2="13.7468" y2="775.272" gradientTransform="matrix(1 0 0 1 0 -766)">
	<stop  offset="0" style="stop-color:#EF7A9D"/>
	<stop  offset="1" style="stop-color:#FF936D"/>
</linearGradient>
<path class="st2" d="M14.216,6.5l-7.374,7.377l1.811,1.811l9.157-7.951L17.062,6.99c-0.299-0.313-0.715-0.49-1.148-0.49H14.216
	C14.216,6.5,14.216,6.5,14.216,6.5z"/>
<linearGradient id="SVGID_4_" gradientUnits="userSpaceOnUse" x1="10.3558" y1="781.6315" x2="16.8084" y2="775.4252" gradientTransform="matrix(1 0 0 1 0 -766)">
	<stop  offset="0" style="stop-color:#FFC846"/>
	<stop  offset="1" style="stop-color:#FF936D"/>
</linearGradient>
<path class="st3" d="M17.114,7.04l-8.555,8.553l1.811,1.811l8.875-8.231L17.114,7.04z"/>
<linearGradient id="SVGID_5_" gradientUnits="userSpaceOnUse" x1="12.4494" y1="782.845" x2="18.7217" y2="776.6267" gradientTransform="matrix(1 0 0 1 0 -766)">
	<stop  offset="0" style="stop-color:#FFC846"/>
	<stop  offset="1" style="stop-color:#FFC846"/>
</linearGradient>
<path class="st4" d="M10.945,17.979l-0.668-0.668l8.57-8.536l0.708,0.708c0.559,0.559,0.609,1.412,0.05,1.97l-6.558,6.527
	C12.465,18.561,11.525,18.559,10.945,17.979z"/>
</svg>
