<?xml version="1.0" encoding="utf-8"?>
<!-- Generator: Adobe Illustrator 25.2.0, SVG Export Plug-In . SVG Version: 6.00 Build 0)  -->
<svg version="1.1" id="Layer_1" xmlns="http://www.w3.org/2000/svg" xmlns:xlink="http://www.w3.org/1999/xlink" x="0px" y="0px"
	 viewBox="0 0 24 24" style="enable-background:new 0 0 24 24;" xml:space="preserve">
<style type="text/css">
	.st0{fill-rule:evenodd;clip-rule:evenodd;fill:#ADB5BD;}
</style>
<g>
	<path class="st0" d="M12,12.041c0.617,0,1.118-0.5,1.118-1.119S12.618,9.803,12,9.803c-0.617,0-1.119,0.501-1.119,1.119
		C10.881,11.54,11.383,12.041,12,12.041z"/>
	<path class="st0" d="M8.197,9.132l-1.79,1.79l1.79,1.79c2.091,2.101,5.516,2.101,7.607,0l1.79-1.79l-1.79-1.79
		C13.712,7.032,10.288,7.032,8.197,9.132z M14.573,10.922c0,1.422-1.153,2.573-2.573,2.573c-1.42,0-2.573-1.151-2.573-2.573
		C9.427,9.5,10.58,8.349,12,8.349C13.421,8.349,14.573,9.5,14.573,10.922z"/>
	<path class="st0" d="M12,0C5.4,0,0,5.4,0,12s5.4,12,12,12s12-5.4,12-12S18.6,0,12,0z M12,19.2l-8.279-8.275L8.644,6h6.712
		l4.922,4.925L12,19.2z"/>
</g>
</svg>
