<?xml version="1.0" encoding="utf-8"?>
<!-- Generator: Adobe Illustrator 25.2.0, SVG Export Plug-In . SVG Version: 6.00 Build 0)  -->
<svg version="1.1" id="Layer_1" xmlns="http://www.w3.org/2000/svg" xmlns:xlink="http://www.w3.org/1999/xlink" x="0px" y="0px"
	 viewBox="0 0 24 24" style="enable-background:new 0 0 24 24;" xml:space="preserve">
<style type="text/css">
	.st0{fill-rule:evenodd;clip-rule:evenodd;fill:#0CE466;}
	.st1{fill-rule:evenodd;clip-rule:evenodd;fill:#FFFFFF;}
</style>
<path d="M12,24c6.6,0,12-5.4,12-12S18.6,0,12,0S0,5.4,0,12S5.4,24,12,24z"/>
<path class="st0" d="M3.722,10.925L8.644,6h6.712l4.922,4.925L12,19.2L3.722,10.925z M15.803,9.132
	c-2.091-2.101-5.516-2.101-7.607,0l-1.79,1.79l1.79,1.79c2.091,2.101,5.516,2.101,7.607,0l1.79-1.79L15.803,9.132z"/>
<path class="st1" d="M9.428,10.922c0,1.422,1.153,2.573,2.573,2.573s2.573-1.151,2.573-2.573c0-1.422-1.153-2.573-2.573-2.573
	S9.428,9.5,9.428,10.922z M10.881,10.922c0,0.618,0.502,1.119,1.119,1.119c0.617,0,1.118-0.501,1.118-1.119
	c0-0.618-0.501-1.119-1.118-1.119C11.383,9.803,10.881,10.304,10.881,10.922z"/>
</svg>
