<?xml version="1.0" encoding="utf-8"?>
<!-- Generator: Adobe Illustrator 25.2.0, SVG Export Plug-In . SVG Version: 6.00 Build 0)  -->
<svg version="1.1" id="Layer_1" xmlns="http://www.w3.org/2000/svg" xmlns:xlink="http://www.w3.org/1999/xlink" x="0px" y="0px"
	 viewBox="0 0 24 24" style="enable-background:new 0 0 24 24;" xml:space="preserve">
<style type="text/css">
	.st0{fill:#ADB5BD;}
</style>
<path class="st0" d="M12,0C5.4,0,0,5.4,0,12s5.4,12,12,12s12-5.4,12-12S18.6,0,12,0z M4.562,5.686l0.066-0.195L4.744,5.66
	l0.209,0.003L4.825,5.826l0.066,0.195L4.693,5.95L4.526,6.071l0.006-0.204L4.365,5.743L4.562,5.686z M3.785,7.733l-0.2-0.056
	l-0.158,0.13L3.418,7.6l-0.173-0.11l0.194-0.071l0.054-0.199l0.125,0.163l0.209-0.012L3.711,7.541L3.785,7.733z M3.556,6.427
	l-0.063,0.29L3.299,6.489L3,6.522l0.158-0.255l-0.119-0.27l0.29,0.068L3.553,5.87l0.021,0.293l0.26,0.151L3.556,6.427z M5.431,7.799
	L4.962,7.556L4.496,7.799l0.09-0.516L4.207,6.916l0.523-0.074l0.233-0.471l0.236,0.471l0.523,0.074L5.342,7.283L5.431,7.799z
	 M14.442,12.352c0.051,0.039-2.598,3.697-2.598,3.697L10,11.411V16H7.5c0,0,3.188-5.891-1.761-8.699c0,0,3.889-1.526,6.693,5.472
	l3.889-4.844c0,0-0.451,9.51,3.527,10.23C19.848,18.159,14.869,19.783,14.442,12.352z"/>
</svg>
