<?xml version="1.0" encoding="utf-8"?>
<!-- Generator: Adobe Illustrator 25.2.0, SVG Export Plug-In . SVG Version: 6.00 Build 0)  -->
<svg version="1.1" id="Layer_1" xmlns="http://www.w3.org/2000/svg" xmlns:xlink="http://www.w3.org/1999/xlink" x="0px" y="0px"
	 viewBox="0 0 24 24" style="enable-background:new 0 0 24 24;" xml:space="preserve">
<style type="text/css">
	.st0{fill:#2081E2;}
	.st1{fill:#FFFFFF;}
</style>
<path class="st0" d="M24,12c0,6.627-5.373,12-12,12S0,18.627,0,12S5.373,0,12,0C18.628,0,24,5.373,24,12z"/>
<path class="st1" d="M5.963,12.338l0.052-0.081l3.079-4.818C9.14,7.367,9.247,7.375,9.281,7.453
	c0.522,1.169,0.972,2.622,0.761,3.527c-0.09,0.372-0.294,0.812-0.571,1.278c-0.036,0.068-0.075,0.134-0.117,0.199
	c-0.02,0.03-0.053,0.043-0.089,0.043h-3.21C5.968,12.498,5.918,12.408,5.963,12.338z"/>
<path class="st1" d="M19.835,13.41v0.77c0,0.044-0.027,0.084-0.067,0.101c-0.242,0.104-1.069,0.483-1.413,0.962
	C17.477,16.465,16.806,18,15.307,18H9.053c-2.217,0-4.013-1.587-4.013-3.812v-0.072c0-0.059,0.048-0.107,0.107-0.107h3.487
	c0.069,0,0.12,0.064,0.113,0.132C8.722,14.368,8.764,14.6,8.872,14.81c0.207,0.42,0.636,0.69,1.1,0.69H11.5v-1.454H9.991
	c-0.088,0-0.139-0.101-0.089-0.173c0.018-0.028,0.039-0.058,0.062-0.091c0.162-0.229,0.392-0.586,0.621-0.991
	c0.157-0.274,0.308-0.566,0.43-0.859c0.025-0.053,0.044-0.107,0.064-0.16c0.033-0.094,0.068-0.181,0.092-0.269
	c0.025-0.074,0.044-0.152,0.064-0.224c0.058-0.249,0.083-0.513,0.083-0.787c0-0.107-0.005-0.219-0.015-0.327
	c-0.005-0.117-0.02-0.234-0.035-0.351c-0.01-0.104-0.028-0.206-0.048-0.313c-0.025-0.157-0.059-0.312-0.099-0.469L11.11,8.973
	c-0.03-0.107-0.054-0.21-0.089-0.317c-0.097-0.337-0.21-0.665-0.328-0.972C10.65,7.563,10.6,7.446,10.551,7.329
	c-0.073-0.176-0.147-0.337-0.215-0.488c-0.035-0.069-0.064-0.132-0.094-0.196C10.21,6.572,10.175,6.499,10.14,6.43
	c-0.025-0.053-0.053-0.102-0.073-0.152l-0.211-0.39c-0.03-0.053,0.02-0.116,0.078-0.1l1.319,0.358h0.004
	c0.002,0,0.004,0.001,0.005,0.001l0.174,0.048l0.066,0.018L11.5,5.485c0-0.36,0.226-0.685,0.75-0.685S13,5.122,13,5.486l0.001,1.149
	l0.194,0.054c0.011,0.004,0.022,0.009,0.032,0.016c0.035,0.026,0.084,0.064,0.147,0.111c0.049,0.039,0.102,0.088,0.166,0.137
	c0.127,0.102,0.279,0.234,0.445,0.386c0.044,0.038,0.088,0.078,0.127,0.117c0.215,0.2,0.455,0.434,0.684,0.693
	c0.064,0.073,0.127,0.147,0.191,0.224c0.064,0.079,0.132,0.157,0.191,0.234c0.078,0.104,0.161,0.211,0.234,0.323
	c0.035,0.053,0.074,0.107,0.107,0.16c0.094,0.142,0.176,0.289,0.255,0.435c0.033,0.068,0.068,0.142,0.097,0.215
	c0.088,0.196,0.157,0.396,0.201,0.595c0.014,0.043,0.023,0.09,0.028,0.132v0.01c0.015,0.059,0.02,0.122,0.025,0.186
	c0.02,0.205,0.01,0.409-0.035,0.615c-0.019,0.088-0.043,0.17-0.073,0.258c-0.03,0.084-0.059,0.171-0.097,0.254
	c-0.074,0.171-0.162,0.343-0.265,0.503c-0.033,0.059-0.073,0.122-0.112,0.181c-0.043,0.063-0.088,0.122-0.127,0.18
	c-0.054,0.074-0.112,0.152-0.171,0.221c-0.053,0.073-0.107,0.145-0.166,0.21c-0.083,0.097-0.161,0.19-0.244,0.279
	c-0.049,0.058-0.102,0.117-0.157,0.17c-0.053,0.059-0.107,0.112-0.157,0.161c-0.083,0.083-0.152,0.147-0.21,0.2l-0.136,0.125
	c-0.02,0.017-0.046,0.027-0.073,0.027H13V15.5h1.374c0.296,0,0.577-0.111,0.804-0.303c0.078-0.068,0.417-0.361,0.817-0.804
	c0.014-0.015,0.031-0.026,0.051-0.031l3.651-1.055C19.766,13.286,19.835,13.338,19.835,13.41z"/>
</svg>
